{"title":"The Bay 2012 VODRip H264 AC3-HS","uid":7787591,"size":1516400628,"categoryP":"video","categoryS":"movies","magnet":"?xt=urn:btih:4b62e4a2b4687975579d234f928d6816b859174f&amp;dn=The+Bay+2012+VODRip+H264+AC3-HS&amp;tr=udp%3A%2F%2Ftracker.openbittorrent.com%3A80&amp;tr=udp%3A%2F%2Fopen.demonii.com%3A1337&amp;tr=udp%3A%2F%2Ftracker.coppersurfer.tk%3A6969&amp;tr=udp%3A%2F%2Fexodus.desync.com%3A6969","seeders":0,"leechers":1,"uploader":"Gh0stNet","files":3,"time":1351939467,"description":"Chaos breaks out in a small Maryland town after an ecological disaster occurs.\n\nThe Bay.2012.VODRip.H264.AC3.HS(Happy Halloween)\n &lt;a href=&quot;\nhttp://www.imdb.com/title/tt1713476/&quot; rel=&quot;nofollow&quot; target=&quot;_NEW&quot;&gt;\nhttp://www.imdb.com/title/tt1713476/&lt;/a&gt;\n\nFile size : 1.41 GiB\nDuration : 1h 25mn\nOverall bit rate : 2 374 Kbps\n\nID : 1\nFormat : MPEG-4 Visual\nFormat profile : Simple@L1\nFormat settings, BVOP : No\nFormat settings, QPel : No\nFormat settings, GMC : No warppoints\nFormat settings, Matrix : Default (H.263)\nDuration : 1h 25mn\nBit rate : 1 943 Kbps\nWidth : 640 pixels\nHeight : 360 pixels\nDisplay aspect ratio : 16:9\nFrame rate mode : Constant\nFrame rate : 23.976 fps\nColor space : YUV\nChroma subsampling : 4:2:0\nBit depth : 8 bits\nScan type : Progressive\nCompression mode : Lossy\nBits/(Pixel*Frame) : 0.352\nStream size : 1.16 GiB (82%)\nWriting library : Lavc52.116.0\nDefault : Yes\nForced : No\n\nAudio\nID : 2\nFormat : AC-3\nFormat/Info : Audio Coding 3\nMode extension : CM (complete main)\nFormat settings, Endianness : Big\nMuxing mode : Header stripping\nCodec ID : A_AC3\nDuration : 1h 25mn\nBit rate mode : Constant\nBit rate : 384 Kbps\nChannel(s) : 2 channels\nChannel positions : Front: L R\nSampling rate : 44.1 KHz\nBit depth : 16 bits\nCompression mode : Lossy\nStream size : 234 MiB (16%)\nDefault : Yes\nForced : No\n\n\nNote - We Already Stopped Doing Outside Upload..But This One Is For Our\nWell Wisher And Follower..Watch It The Same Date Of Release In Theater..\nAnd Its A Halloween Gift From Us To All The Movie Lovers Enjoy The Movie..\nA little Thanks Always Appreciated...\n &lt;a href=&quot;\nhttp://old.rapidimg.org/images/jUzaK.jpg&quot; rel=&quot;nofollow&quot; target=&quot;_NEW&quot;&gt;\nhttp://old.rapidimg.org/images/jUzaK.jpg&lt;/a&gt; &lt;a href=&quot;\nhttp://old.rapidimg.org/images/bDLF.jpg&quot; rel=&quot;nofollow&quot; target=&quot;_NEW&quot;&gt;\nhttp://old.rapidimg.org/images/bDLF.jpg&lt;/a&gt; &lt;a href=&quot;\nhttp://old.rapidimg.org/images/eIFOC.jpg&quot; rel=&quot;nofollow&quot; target=&quot;_NEW&quot;&gt;\nhttp://old.rapidimg.org/images/eIFOC.jpg&lt;/a&gt; &lt;a href=&quot;\nhttp://old.rapidimg.org/images/ukl6q.jpg&quot; rel=&quot;nofollow&quot; target=&quot;_NEW&quot;&gt;\nhttp://old.rapidimg.org/images/ukl6q.jpg&lt;/a&gt; &lt;a href=&quot;\nhttp://old.rapidimg.org/images/SmPOT.jpg&quot; rel=&quot;nofollow&quot; target=&quot;_NEW&quot;&gt;\nhttp://old.rapidimg.org/images/SmPOT.jpg&lt;/a&gt;","torrent":{"xt":"urn:btih:4b62e4a2b4687975579d234f928d6816b859174f","amp;dn":"The+Bay+2012+VODRip+H264+AC3-HS","amp;tr":["udp%3A%2F%2Ftracker.openbittorrent.com%3A80","udp%3A%2F%2Fopen.demonii.com%3A1337","udp%3A%2F%2Ftracker.coppersurfer.tk%3A6969","udp%3A%2F%2Fexodus.desync.com%3A6969"],"infoHash":"4b62e4a2b4687975579d234f928d6816b859174f","infoHashBuffer":{"type":"Buffer","data":[75,98,228,162,180,104,121,117,87,157,35,79,146,141,104,22,184,89,23,79]},"announce":[],"urlList":[]}}